<svg height="451pt" viewBox="0 0 451 451.54486" width="451pt" xmlns="http://www.w3.org/2000/svg"><path d="m409.089844 245.589844c-6.984375-12.832032-20.425782-20.816406-35.035156-20.816406h-297.5625c-14.609376 0-28.050782 7.988281-35.035157 20.816406l-33.324219 61.195312c-3.1875 5.855469-4.859374 12.414063-4.859374 19.078125 0 26.441407 25.25 45.5625 50.699218 38.402344l150.472656-42.347656c6.757813-1.902344 13.898438-1.988281 20.699219-.246094l172.347657 44.117187c25.230468 6.460938 49.785156-12.601562 49.785156-38.644531v-1.28125c0-6.664062-1.671875-13.222656-4.859375-19.078125zm0 0" fill="#87796f"/><path d="m407.476562 370.058594c-3.566406 0-7.171874-.449219-10.734374-1.363282l-172.34375-44.117187c-6.28125-1.609375-12.898438-1.535156-19.144532.230469l-150.46875 42.347656c-13.042968 3.667969-26.71875 1.078125-37.515625-7.097656-10.800781-8.183594-16.996093-20.644532-16.996093-34.195313 0-7.140625 1.804687-14.238281 5.222656-20.511719l33.324218-61.199218c7.515626-13.800782 21.949219-22.378906 37.667969-22.378906h297.566407c15.71875 0 30.152343 8.578124 37.667968 22.378906l33.328125 61.199218c3.414063 6.277344 5.222657 13.371094 5.222657 20.511719v1.28125c0 13.347657-6.050782 25.699219-16.59375 33.882813-7.636719 5.929687-16.808594 9.03125-26.203126 9.03125zm-192.222656-52.628906c3.574219 0 7.148438.445312 10.632813 1.335937l172.34375 44.121094c11.121093 2.839843 22.699219.441406 31.769531-6.601563 9.070312-7.039062 14.269531-17.660156 14.269531-29.140625v-1.28125c0-6.140625-1.554687-12.242187-4.492187-17.636719l-33.324219-61.203124c-6.464844-11.875-18.878906-19.25-32.402344-19.25h-297.5625c-13.519531 0-25.933593 7.378906-32.398437 19.25l-33.328125 61.203124c-2.9375 5.394532-4.492188 11.496094-4.492188 17.636719 0 11.65625 5.328125 22.378907 14.617188 29.410157 9.292969 7.039062 21.050781 9.265624 32.269531 6.105468l150.472656-42.347656c3.796875-1.066406 7.710938-1.601562 11.625-1.601562zm0 0" fill="#3a312a"/><path d="m379.273438 283.917969c0-77.871094-68.949219-141-154-141-85.054688 0-154 63.128906-154 141 0 77.871093 68.945312 141 154 141 85.050781 0 154-63.128907 154-141zm0 0" fill="#87796f"/><path d="m225.273438 427.917969c-86.570313 0-157-64.597657-157-144 0-79.402344 70.429687-144 157-144 86.570312 0 157 64.597656 157 144 0 79.402343-70.429688 144-157 144zm0-282c-83.261719 0-151 61.90625-151 138s67.738281 138 151 138c83.261718 0 151-61.90625 151-138s-67.738282-138-151-138zm0 0" fill="#3a312a"/><path d="m71.566406 22.359375s6.816406 25.316406 26.445313 26.492187c0 0-26.203125 9.050782-26.644531 28.402344 0 0-5.15625-27.144531-25.847657-28.117187-.003906.003906 24.097657-3.648438 26.046875-26.777344zm0 0" fill="#d5de58"/><path d="m71.363281 80.253906c-1.425781 0-2.671875-1.011718-2.941406-2.433594-.050781-.25-4.988281-24.835937-23.046875-25.683593-1.539062-.074219-2.773438-1.300781-2.851562-2.84375-.078126-1.539063 1.019531-2.886719 2.546874-3.121094.882813-.136719 21.785157-3.632813 23.507813-24.066406.121094-1.449219 1.265625-2.601563 2.714844-2.734375 1.445312-.136719 2.789062.800781 3.167969 2.207031.0625.230469 6.515624 23.25 23.726562 24.28125 1.429688.085937 2.59375 1.167969 2.792969 2.585937.195312 1.414063-.636719 2.777344-1.988281 3.242188-.242188.085938-24.234376 8.625-24.625 25.640625-.035157 1.53125-1.222657 2.789063-2.75 2.917969-.085938.003906-.167969.007812-.253907.007812zm-15.480469-31.457031c7.757813 3.9375 12.460938 11.492187 15.171876 17.753906 4.054687-8.042969 11.886718-13.574219 17.898437-16.855469-8.265625-3.683593-13.566406-11.300781-16.667969-17.445312-3.585937 8.722656-10.539062 13.734375-16.402344 16.546875zm0 0" fill="#3a312a"/><path d="m28.167969 56.320312s4.824219 17.910157 18.703125 18.738282c0 0-18.53125 6.402344-18.84375 20.089844 0 0-3.648438-19.199219-18.28125-19.886719 0 0 17.042968-2.582031 18.421875-18.941407zm0 0" fill="#d5de58"/><path d="m28.023438 98.152344c-1.425782 0-2.671876-1.015625-2.941407-2.441406-.035156-.164063-3.410156-16.882813-15.480469-17.453126-1.539062-.074218-2.773437-1.300781-2.851562-2.84375-.082031-1.539062 1.019531-2.886718 2.542969-3.121093.59375-.09375 14.730469-2.484375 15.886719-16.226563.121093-1.453125 1.269531-2.605468 2.71875-2.734375 1.464843-.128906 2.785156.796875 3.164062 2.203125.042969.15625 4.453125 15.839844 15.988281 16.53125 1.425781.085938 2.597657 1.167969 2.792969 2.585938.195312 1.417968-.640625 2.777344-1.992188 3.246094-.164062.054687-16.566406 5.902343-16.828124 17.320312-.03125 1.535156-1.222657 2.792969-2.75 2.921875-.082032.007813-.164063.011719-.25.011719zm-9.035157-23.058594c4.214844 2.664062 7.046875 6.789062 8.894531 10.558594 2.75-4.464844 7.03125-7.742188 10.730469-9.945313-4.574219-2.539062-7.769531-6.699219-9.882812-10.449219-2.347657 4.578126-6.03125 7.753907-9.742188 9.835938zm0 0" fill="#3a312a"/><path d="m28.167969 3.003906s4.824219 17.910156 18.703125 18.742188c0 0-18.53125 6.402344-18.84375 20.089844 0 0-3.648438-19.199219-18.28125-19.890626 0 0 17.042968-2.582031 18.421875-18.941406zm0 0" fill="#d5de58"/><path d="m28.023438 44.835938c-1.425782 0-2.671876-1.015626-2.941407-2.441407-.035156-.164062-3.410156-16.882812-15.480469-17.453125-1.539062-.074218-2.773437-1.300781-2.851562-2.84375-.082031-1.535156 1.019531-2.886718 2.542969-3.121094.59375-.09375 14.730469-2.484374 15.886719-16.226562.121093-1.449219 1.269531-2.605469 2.71875-2.734375 1.464843-.148437 2.785156.796875 3.164062 2.203125.042969.15625 4.453125 15.839844 15.988281 16.53125 1.425781.085938 2.597657 1.167969 2.792969 2.585938.195312 1.417968-.640625 2.777343-1.992188 3.246093-.164062.054688-16.566406 5.902344-16.828124 17.320313-.03125 1.535156-1.222657 2.792968-2.75 2.921875-.082032.007812-.164063.011719-.25.011719zm-9.035157-23.054688c4.214844 2.664062 7.046875 6.789062 8.894531 10.558594 2.75-4.464844 7.03125-7.742188 10.730469-9.945313-4.574219-2.539062-7.769531-6.703125-9.882812-10.449219-2.347657 4.574219-6.03125 7.753907-9.742188 9.835938zm0 0" fill="#3a312a"/><path d="m235.246094 265.648438 25.085937-43.457032c4.433594-7.675781-1.109375-17.273437-9.972656-17.273437h-50.175781c-8.863282 0-14.40625 9.597656-9.972656 17.273437l25.089843 43.457032c4.433594 7.675781 15.511719 7.675781 19.945313 0zm0 0" fill="#d5de58"/><path d="m225.273438 274.402344c-5.25 0-9.949219-2.714844-12.570313-7.257813l-25.089844-43.453125c-2.621093-4.542968-2.621093-9.96875 0-14.515625 2.625-4.542969 7.324219-7.257812 12.574219-7.257812h50.175781c5.246094 0 9.945313 2.710937 12.570313 7.257812s2.625 9.972657 0 14.515625l-25.089844 43.453125c-2.625 4.546875-7.324219 7.257813-12.570312 7.257813zm-25.089844-66.484375c-3.078125 0-5.835938 1.59375-7.375 4.257812-1.539063 2.667969-1.539063 5.851563 0 8.515625l25.085937 43.457032c1.542969 2.664062 4.296875 4.257812 7.378907 4.257812 3.078124 0 5.832031-1.59375 7.371093-4.257812l25.089844-43.457032c1.539063-2.664062 1.539063-5.847656 0-8.515625-1.539063-2.664062-4.296875-4.257812-7.375-4.257812zm0 0" fill="#3a312a"/><path d="m350.722656 448.542969h62.238282v-39.585938h-358.222657v39.585938zm0 0" fill="#8ac3da"/><path d="m412.964844 451.542969h-62.242188c-1.65625 0-3-1.34375-3-3 0-1.652344 1.34375-3 3-3h59.242188v-33.585938h-352.226563v33.585938h267.417969c1.65625 0 3 1.347656 3 3 0 1.65625-1.34375 3-3 3h-270.417969c-1.65625 0-3-1.34375-3-3v-39.585938c0-1.65625 1.34375-3 3-3h358.222657c1.660156 0 3 1.34375 3 3v39.585938c.003906 1.65625-1.339844 3-2.996094 3zm0 0" fill="#3a312a"/><path d="m412.960938 448.542969h15.671874c10.292969 0 18.640626-8.34375 18.640626-18.636719v-2.308594c0-10.292968-8.347657-18.640625-18.640626-18.640625h-15.671874zm0 0" fill="#eb6e7a"/><path d="m428.632812 451.542969h-15.671874c-1.65625 0-3-1.34375-3-3v-39.585938c0-1.65625 1.34375-3 3-3h15.671874c11.933594 0 21.640626 9.707031 21.640626 21.640625v2.304688c0 11.933594-9.707032 21.640625-21.640626 21.640625zm-12.667968-6h12.667968c8.625 0 15.640626-7.015625 15.640626-15.636719v-2.308594c0-8.621094-7.015626-15.640625-15.640626-15.640625h-12.667968zm0 0" fill="#3a312a"/><path d="m54.738281 408.957031h178.226563v39.585938h-178.226563zm0 0" fill="#eb6e7a"/><path d="m232.964844 451.542969h-178.226563c-1.65625 0-3-1.34375-3-3v-39.585938c0-1.65625 1.34375-3 3-3h178.226563c1.65625 0 3 1.34375 3 3v39.585938c0 1.65625-1.34375 3-3 3zm-175.226563-6h172.226563v-33.585938h-172.226563zm0 0" fill="#3a312a"/><path d="m54.738281 448.542969v-39.585938l-51.464843 20.121094zm0 0" fill="#d5dc57"/><path d="m54.738281 451.542969c-.359375 0-.71875-.0625-1.0625-.191407l-51.464843-19.464843c-1.164063-.441407-1.933594-1.550781-1.9375-2.792969-.007813-1.242188.75-2.359375 1.90625-2.8125l51.464843-20.121094c.925781-.355468 1.964844-.238281 2.785157.316406.820312.558594 1.308593 1.484376 1.308593 2.476563v39.589844c0 .984375-.484375 1.90625-1.296875 2.46875-.503906.351562-1.101562.53125-1.703125.53125zm-43.109375-22.511719 40.113282 15.171875v-30.851563zm0 0" fill="#3a312a"/><path d="m194.273438 432.917969c-6.835938 0-12.378907-5.539063-12.378907-12.375v-19.25c0-6.832031 5.542969-12.375 12.378907-12.375 6.832031 0 12.371093 5.539062 12.371093 12.375v19.25c0 6.835937-5.539062 12.375-12.371093 12.375zm0 0" fill="#d5de58"/><path d="m194.273438 435.917969c-8.480469 0-15.378907-6.894531-15.378907-15.375v-19.25c0-8.476563 6.898438-15.375 15.378907-15.375 8.476562 0 15.371093 6.894531 15.371093 15.375v19.25c0 8.480469-6.894531 15.375-15.371093 15.375zm0-44c-5.171876 0-9.378907 4.207031-9.378907 9.375v19.25c0 5.171875 4.207031 9.378906 9.378907 9.378906 5.167968 0 9.371093-4.207031 9.371093-9.378906v-19.25c0-5.167969-4.203125-9.375-9.371093-9.375zm0 0" fill="#3a312a"/><path d="m256.273438 432.917969c-6.835938 0-12.378907-5.539063-12.378907-12.375v-19.25c0-6.832031 5.542969-12.375 12.378907-12.375 6.832031 0 12.371093 5.539062 12.371093 12.375v19.25c0 6.835937-5.539062 12.375-12.371093 12.375zm0 0" fill="#d5de58"/><path d="m256.273438 435.917969c-8.480469 0-15.378907-6.894531-15.378907-15.375v-19.25c0-8.476563 6.898438-15.375 15.378907-15.375 8.476562 0 15.371093 6.894531 15.371093 15.375v19.25c0 8.480469-6.894531 15.375-15.371093 15.375zm0-44c-5.171876 0-9.378907 4.207031-9.378907 9.375v19.25c0 5.171875 4.207031 9.378906 9.378907 9.378906 5.167968 0 9.371093-4.207031 9.371093-9.378906v-19.25c0-5.167969-4.203125-9.375-9.371093-9.375zm0 0" fill="#3a312a"/><path d="m310.152344 93v64.058594c0 9-7.289063 16.289062-16.289063 16.289062h-143.21875c-9 0-16.289062-7.289062-16.289062-16.289062v-64.058594l87.898437 44.703125zm0 0" fill="#ed6e7a"/><path d="m293.863281 176.347656h-143.21875c-10.632812 0-19.289062-8.652344-19.289062-19.289062v-64.058594c0-1.042969.542969-2.011719 1.433593-2.558594.890626-.542968 1.996094-.59375 2.925782-.117187l86.539062 44.015625 86.535156-44.015625c.929688-.476563 2.042969-.429688 2.929688.117187.890625.546875 1.433594 1.515625 1.433594 2.558594v64.058594c0 10.636718-8.652344 19.289062-19.289063 19.289062zm-156.507812-78.453125v59.167969c0 7.328125 5.964843 13.289062 13.289062 13.289062h143.21875c7.328125 0 13.289063-5.960937 13.289063-13.289062v-59.167969l-83.539063 42.488281c-.855469.433594-1.863281.433594-2.71875 0zm0 0" fill="#3a312a"/><path d="m154.898438 37.429688-64.894532 33.007812 132.25 67.265625 132.25-67.265625-132.25-67.265625-44.148437 22.457031zm0 0" fill="#ed6e7a"/><path d="m222.253906 140.703125c-.464844 0-.929687-.109375-1.359375-.324219l-132.25-67.265625c-1.007812-.511719-1.640625-1.542969-1.640625-2.675781 0-1.125.632813-2.160156 1.640625-2.671875l64.894531-33.007813c1.476563-.753906 3.285157-.164062 4.035157 1.3125.75 1.476563.164062 3.28125-1.316407 4.035157l-59.636718 30.332031 125.632812 63.902344 125.632813-63.902344-125.632813-63.898438-42.789062 21.765626c-1.472656.753906-3.28125.164062-4.03125-1.316407-.753906-1.476562-.164063-3.285156 1.3125-4.035156l44.148437-22.453125c.855469-.4335938 1.867188-.4335938 2.71875 0l132.25 67.265625c1.007813.511719 1.640625 1.546875 1.640625 2.675781s-.632812 2.160156-1.640625 2.671875l-132.25 67.269531c-.425781.210938-.890625.320313-1.359375.320313zm0 0" fill="#3a312a"/><path d="m225.273438 187.921875c0 30.375-24.625 55-55 55s-55-24.625-55-55 24.625-55 55-55 55 24.625 55 55zm0 0" fill="#fae6ca"/><path d="m170.273438 245.917969c-31.984376 0-58-26.019531-58-58s26.015624-58 58-58c31.980468 0 58 26.019531 58 58s-26.019532 58-58 58zm0-110c-28.671876 0-52 23.328125-52 52 0 28.675781 23.328124 52 52 52 28.671874 0 52-23.324219 52-52 0-28.671875-23.328126-52-52-52zm0 0" fill="#3a312a"/><path d="m191.273438 187.921875c0 11.597656-9.402344 21-21 21-11.597657 0-21-9.402344-21-21s9.402343-21 21-21c11.597656 0 21 9.402344 21 21zm0 0" fill="#87796f"/><path d="m170.273438 211.917969c-13.234376 0-24-10.765625-24-24s10.765624-24 24-24c13.234374 0 24 10.765625 24 24s-10.765626 24-24 24zm0-42c-9.925782 0-18 8.074219-18 18s8.074218 18 18 18c9.921874 0 18-8.074219 18-18s-8.078126-18-18-18zm0 0" fill="#3a312a"/><path d="m335.273438 187.921875c0 30.375-24.625 55-55 55s-55-24.625-55-55 24.625-55 55-55 55 24.625 55 55zm0 0" fill="#fae6ca"/><path d="m280.273438 245.917969c-31.984376 0-58-26.019531-58-58s26.015624-58 58-58c31.980468 0 58 26.019531 58 58s-26.019532 58-58 58zm0-110c-28.671876 0-52 23.328125-52 52 0 28.675781 23.328124 52 52 52 28.671874 0 52-23.324219 52-52 0-28.671875-23.328126-52-52-52zm0 0" fill="#3a312a"/><path d="m301.273438 187.921875c0 11.597656-9.402344 21-21 21-11.597657 0-21-9.402344-21-21s9.402343-21 21-21c11.597656 0 21 9.402344 21 21zm0 0" fill="#87796f"/><path d="m280.273438 211.917969c-13.234376 0-24-10.765625-24-24s10.765624-24 24-24c13.234374 0 24 10.765625 24 24s-10.765626 24-24 24zm0-42c-9.925782 0-18 8.074219-18 18s8.074218 18 18 18c9.921874 0 18-8.074219 18-18s-8.078126-18-18-18zm0 0" fill="#3a312a"/><path d="m354.503906 70.4375v81.929688c-3.386718-4.351563-7.96875-7.03125-13.03125-7.03125-5.03125 0-9.613281 2.679687-13 7.03125v-68.703126zm0 0" fill="#d5de58"/><path d="m354.507812 155.367188c-.910156 0-1.792968-.410157-2.371093-1.15625-2.945313-3.789063-6.734375-5.871094-10.664063-5.871094-3.90625 0-7.683594 2.085937-10.628906 5.871094-.789062 1.015624-2.132812 1.410156-3.339844.996093-1.214844-.417969-2.027344-1.554687-2.027344-2.839843v-68.703126c0-1.128906.632813-2.164062 1.640626-2.675781l26.035156-13.222656c.925781-.480469 2.035156-.429687 2.925781.117187.886719.542969 1.429687 1.515626 1.429687 2.554688v81.929688c0 1.285156-.8125 2.421874-2.023437 2.839843-.324219.109375-.652344.160157-.976563.160157zm-13.035156-13.03125c3.554688 0 6.972656 1.082031 10.035156 3.125v-70.132813l-20.035156 10.175781v59.953125c3.054688-2.039062 6.464844-3.121093 10-3.121093zm0 0" fill="#3a312a"/><path d="m360.539062 171.371094c0-14.375-8.53125-26.027344-19.054687-26.027344-10.527344 0-19.058594 11.652344-19.058594 26.027344s8.53125 26.027344 19.058594 26.027344c10.523437 0 19.054687-11.652344 19.054687-26.027344zm0 0" fill="#d5de58"/><g fill="#3a312a"><path d="m341.484375 200.398438c-12.164063 0-22.058594-13.023438-22.058594-29.027344 0-16.007813 9.894531-29.03125 22.058594-29.03125 12.160156 0 22.054687 13.023437 22.054687 29.03125 0 16.003906-9.894531 29.027344-22.054687 29.027344zm0-52.058594c-8.855469 0-16.058594 10.332031-16.058594 23.03125 0 12.699218 7.203125 23.027344 16.058594 23.027344 8.851563 0 16.054687-10.328126 16.054687-23.027344 0-12.699219-7.203124-23.03125-16.054687-23.03125zm0 0"/><path d="m225.273438 382.773438c-14.339844 0-26-11.664063-26-26 0-1.65625 1.339843-3 3-3 1.65625 0 3 1.34375 3 3 0 11.03125 8.972656 20 20 20 11.027343 0 20-8.96875 20-20 0-1.65625 1.339843-3 3-3 1.65625 0 3 1.34375 3 3 0 14.335937-11.664063 26-26 26zm0 0"/><path d="m151.273438 306.773438c-14.339844 0-26-11.664063-26-26 0-1.65625 1.339843-3 3-3 1.65625 0 3 1.34375 3 3 0 11.03125 8.972656 20 20 20 11.027343 0 20-8.96875 20-20 0-1.65625 1.339843-3 3-3 1.65625 0 3 1.34375 3 3 0 14.335937-11.664063 26-26 26zm0 0"/><path d="m225.273438 306.773438c-14.339844 0-26-11.664063-26-26 0-1.65625 1.339843-3 3-3 1.65625 0 3 1.34375 3 3 0 11.03125 8.972656 20 20 20 11.027343 0 20-8.96875 20-20 0-1.65625 1.339843-3 3-3 1.65625 0 3 1.34375 3 3 0 14.335937-11.664063 26-26 26zm0 0"/><path d="m299.273438 306.773438c-14.339844 0-26-11.664063-26-26 0-1.65625 1.339843-3 3-3 1.65625 0 3 1.34375 3 3 0 11.03125 8.972656 20 20 20 11.027343 0 20-8.96875 20-20 0-1.65625 1.339843-3 3-3 1.65625 0 3 1.34375 3 3 0 14.335937-11.664063 26-26 26zm0 0"/><path d="m188.273438 346.773438c-14.339844 0-26-11.664063-26-26 0-1.65625 1.339843-3 3-3 1.65625 0 3 1.34375 3 3 0 11.03125 8.972656 20 20 20 11.027343 0 20-8.96875 20-20 0-1.65625 1.339843-3 3-3 1.65625 0 3 1.34375 3 3 0 14.335937-11.664063 26-26 26zm0 0"/><path d="m262.273438 346.773438c-14.339844 0-26-11.664063-26-26 0-1.65625 1.339843-3 3-3 1.65625 0 3 1.34375 3 3 0 11.03125 8.972656 20 20 20 11.027343 0 20-8.96875 20-20 0-1.65625 1.339843-3 3-3 1.65625 0 3 1.34375 3 3 0 14.335937-11.664063 26-26 26zm0 0"/></g><path d="m345.011719 199.996094c-1.140625.238281-2.320313.398437-3.519531.398437-1.539063 0-3.019532-.199219-4.460938-.578125-1.5 7.179688-4.339844 13.859375-8.21875 19.796875 11.140625 19.203125 17.460938 41.082031 17.460938 64.300781 0 50.660157-30 95-74.621094 119v5.359376h19.082031c50.578125-22.339844 85.539063-69.679688 85.539063-124.359376 0-31.558593-11.679688-60.660156-31.261719-83.917968zm0 0" fill="#695b51"/><path d="m307.152344 97.894531v38.660157c-8.039063-4.238282-17.179688-6.640626-26.878906-6.640626-1.039063 0-2.101563.019532-3.121094.101563v-16.859375zm0 0" fill="#d34e5c"/></svg>